<?xml version="1.0" encoding="UTF-8" ?>
<!DOCTYPE svg PUBLIC "-//W3C//DTD SVG 1.1//EN" "http://www.w3.org/Graphics/SVG/1.1/DTD/svg11.dtd">
<svg width="500pt" height="500pt" viewBox="0 0 500 500" version="1.1" xmlns="http://www.w3.org/2000/svg">
<g id="#e7f5faff">
</g>
<g id="#edf0fbff">
</g>
<g id="#525c65ff">
<path fill="#525c65" opacity="1.00" d=" M 203.42 170.40 C 204.45 169.14 206.26 169.56 206.87 170.95 C 207.10 173.63 207.08 176.34 206.89 179.02 C 206.24 180.72 203.84 180.74 203.13 179.09 C 203.06 176.23 202.56 173.14 203.42 170.40 Z" />
<path fill="#525c65" opacity="1.00" d=" M 181.22 180.18 C 183.04 179.36 184.22 181.67 185.47 182.61 C 186.58 183.84 189.19 185.64 187.37 187.38 C 185.33 189.24 183.53 186.14 182.10 184.96 C 180.66 183.86 178.76 181.35 181.22 180.18 Z" />
<path fill="#525c65" opacity="1.00" d=" M 231.18 180.20 C 231.59 180.19 232.41 180.19 232.81 180.18 C 236.00 182.49 231.35 185.16 229.85 186.96 C 228.61 189.04 225.13 187.54 226.14 185.18 C 227.69 183.40 229.33 181.67 231.18 180.20 Z" />
<path fill="#525c65" opacity="1.00" d=" M 202.36 186.46 C 210.39 184.37 219.09 189.65 221.40 197.53 C 229.56 193.31 238.56 190.82 247.72 190.13 C 272.52 188.30 297.43 201.92 309.52 223.60 C 314.55 218.06 324.62 219.20 328.15 225.82 C 329.21 228.82 333.03 228.81 334.55 231.44 C 337.41 235.28 335.75 241.38 331.34 243.24 C 328.74 244.63 325.82 243.72 323.23 242.83 C 321.20 243.62 319.04 243.97 316.87 244.14 C 319.21 256.96 317.70 270.48 312.43 282.41 C 311.39 284.85 309.65 287.18 309.98 289.98 C 310.05 297.66 309.94 305.34 310.04 313.02 C 314.47 317.19 315.36 324.62 311.39 329.40 C 307.27 334.98 298.26 335.49 293.51 330.43 C 288.65 325.79 289.12 317.49 293.96 313.01 C 294.00 310.96 294.01 308.92 294.01 306.89 C 282.27 316.55 267.18 321.97 251.98 322.01 C 235.21 321.95 218.48 315.37 206.44 303.64 C 204.79 301.83 202.34 301.32 200.12 300.59 C 195.48 303.39 189.05 301.69 186.72 296.72 C 184.58 291.76 187.42 286.03 192.37 284.22 C 184.03 266.76 183.98 245.67 192.18 228.15 C 190.11 227.82 188.08 227.32 186.10 226.62 C 183.31 227.92 179.97 228.61 177.11 227.09 C 172.43 225.00 170.53 218.62 173.34 214.32 C 174.99 211.34 178.41 210.12 181.63 209.84 C 183.71 206.99 186.59 204.84 190.05 204.02 C 189.18 196.15 194.52 188.12 202.36 186.46 M 242.95 196.99 C 235.22 202.44 230.81 211.30 227.70 219.99 C 243.90 220.01 260.10 220.01 276.30 219.99 C 273.16 211.28 268.76 202.37 260.97 196.94 C 255.69 193.21 248.20 193.23 242.95 196.99 M 206.94 213.30 C 208.55 215.24 209.83 217.45 210.19 220.00 C 214.66 219.92 219.14 220.21 223.60 219.81 C 226.31 210.85 231.08 202.55 237.57 195.81 C 225.87 198.35 215.33 204.88 206.94 213.30 M 266.37 195.80 C 272.97 202.50 277.65 210.90 280.45 219.86 C 287.74 220.17 295.05 219.94 302.35 219.98 C 293.85 207.91 280.78 199.03 266.37 195.80 M 184.72 212.63 C 183.68 215.27 180.47 213.33 178.60 214.68 C 175.21 216.34 175.26 221.82 178.72 223.38 C 181.22 224.91 183.80 223.09 185.92 221.80 C 189.50 224.41 194.11 224.45 197.83 222.11 C 199.42 222.97 201.03 224.42 203.00 223.85 C 205.56 223.26 206.88 219.88 205.26 217.76 C 204.26 216.07 202.09 216.18 200.47 215.55 C 199.28 213.18 198.49 210.32 195.88 209.09 C 192.01 206.61 186.66 208.67 184.72 212.63 M 209.08 224.03 C 206.48 228.08 201.38 228.74 197.20 226.96 C 192.90 235.31 190.32 244.57 190.08 253.98 C 199.40 254.02 208.71 254.00 218.03 253.99 C 218.17 243.87 219.55 233.78 222.17 224.01 C 217.80 224.00 213.44 223.97 209.08 224.03 M 226.28 224.11 C 223.61 233.83 222.16 243.89 222.04 253.98 C 242.01 254.02 261.98 254.00 281.96 253.99 C 281.85 243.90 280.38 233.84 277.72 224.10 C 260.58 223.93 243.42 223.93 226.28 224.11 M 281.83 224.01 C 284.45 233.78 285.81 243.87 285.98 253.99 C 295.29 254.01 304.60 254.02 313.92 253.98 C 313.65 250.13 313.59 246.13 312.24 242.47 C 310.01 243.56 307.48 244.48 304.98 243.76 C 300.08 242.73 296.75 237.15 298.41 232.37 C 299.37 228.83 302.67 226.64 306.09 225.89 C 305.82 225.41 305.28 224.46 305.01 223.98 C 297.28 224.03 289.56 223.98 281.83 224.01 M 310.72 228.64 C 309.70 231.26 306.52 229.33 304.66 230.65 C 300.94 232.37 301.37 238.45 305.30 239.65 C 307.76 240.81 309.84 238.76 311.97 237.90 C 315.59 240.32 320.11 240.50 323.80 238.11 C 325.54 239.10 327.56 240.72 329.66 239.60 C 331.82 238.70 332.69 235.70 331.29 233.81 C 330.30 232.03 328.04 232.24 326.42 231.50 C 325.28 229.13 324.47 226.31 321.89 225.09 C 318.02 222.61 312.66 224.66 310.72 228.64 M 190.09 258.01 C 190.34 266.63 192.45 275.17 196.17 282.95 C 198.15 281.03 200.22 278.94 203.04 278.39 C 208.87 276.73 215.17 280.33 217.34 285.85 C 218.94 286.69 220.57 287.47 222.21 288.24 C 219.60 278.37 218.18 268.21 218.03 258.01 C 208.71 257.99 199.40 257.99 190.09 258.01 M 222.04 258.02 C 222.15 268.10 223.62 278.14 226.26 287.87 C 243.40 288.11 260.57 288.05 277.72 287.89 C 280.39 278.16 281.84 268.11 281.96 258.02 C 261.98 257.99 242.01 257.99 222.04 258.02 M 285.97 258.01 C 285.80 268.12 284.46 278.22 281.82 287.99 C 285.88 288.01 289.93 288.00 293.99 288.00 C 294.10 281.61 293.83 275.22 294.11 268.85 C 294.70 262.90 302.67 259.82 307.09 263.86 C 311.13 266.99 309.71 272.53 310.09 276.93 C 312.79 271.06 313.56 264.43 313.92 258.03 C 304.61 257.97 295.29 258.00 285.97 258.01 M 300.34 266.39 C 298.57 267.14 297.85 269.14 298.00 270.95 C 297.99 284.98 298.01 299.01 298.00 313.05 C 298.33 315.81 294.96 316.84 294.47 319.38 C 292.50 324.29 296.69 330.15 301.94 329.98 C 307.23 330.23 311.53 324.32 309.52 319.37 C 309.02 316.82 305.65 315.79 306.00 313.02 C 305.95 298.64 306.08 284.26 305.94 269.89 C 306.01 267.16 302.77 265.14 300.34 266.39 M 203.40 282.48 C 200.67 283.22 199.36 285.83 197.78 287.89 C 195.66 288.38 193.09 287.61 191.47 289.51 C 188.70 292.11 190.28 297.29 194.05 297.87 C 196.35 298.51 198.01 296.53 200.02 295.91 C 201.98 296.71 203.82 298.04 206.04 297.97 C 208.16 298.05 209.87 296.68 211.85 296.20 C 213.50 296.92 215.03 298.42 216.99 297.87 C 219.58 297.25 220.89 293.86 219.24 291.72 C 218.11 289.43 214.33 290.89 213.81 288.20 C 212.67 283.83 207.77 280.75 203.40 282.48 M 227.71 292.01 C 230.73 300.52 235.03 309.15 242.44 314.65 C 247.71 318.72 255.50 318.95 260.94 315.07 C 268.75 309.65 273.17 300.73 276.30 292.01 C 260.10 291.99 243.91 291.99 227.71 292.01 M 280.38 292.21 C 277.64 301.16 272.95 309.57 266.31 316.21 C 276.61 314.02 286.04 308.67 293.89 301.74 C 294.09 298.50 293.99 295.25 293.99 292.00 C 289.46 292.10 284.90 291.75 280.38 292.21 M 218.03 301.72 C 215.19 302.92 212.58 300.37 209.76 301.06 C 217.27 308.68 227.26 313.80 237.65 316.21 C 231.72 310.16 227.22 302.78 224.49 294.75 C 223.13 297.67 221.54 301.00 218.03 301.72 Z" />
<path fill="#525c65" opacity="1.00" d=" M 173.04 202.19 C 175.62 201.85 178.26 201.90 180.85 202.16 C 182.36 202.90 182.33 205.01 180.91 205.83 C 178.32 206.10 175.66 206.17 173.08 205.80 C 171.67 205.07 171.70 202.98 173.04 202.19 Z" />
</g>
<g id="#03b3e4ff">
<path fill="#03b3e4" opacity="1.00" d=" M 242.95 196.99 C 248.20 193.23 255.69 193.21 260.97 196.94 C 268.76 202.37 273.16 211.28 276.30 219.99 C 260.10 220.01 243.90 220.01 227.70 219.99 C 230.81 211.30 235.22 202.44 242.95 196.99 Z" />
<path fill="#03b3e4" opacity="1.00" d=" M 206.94 213.30 C 215.33 204.88 225.87 198.35 237.57 195.81 C 231.08 202.55 226.31 210.85 223.60 219.81 C 219.14 220.21 214.66 219.92 210.19 220.00 C 209.83 217.45 208.55 215.24 206.94 213.30 Z" />
<path fill="#03b3e4" opacity="1.00" d=" M 266.37 195.80 C 280.78 199.03 293.85 207.91 302.35 219.98 C 295.05 219.94 287.74 220.17 280.45 219.86 C 277.65 210.90 272.97 202.50 266.37 195.80 Z" />
<path fill="#03b3e4" opacity="1.00" d=" M 209.08 224.03 C 213.44 223.97 217.80 224.00 222.17 224.01 C 219.55 233.78 218.17 243.87 218.03 253.99 C 208.71 254.00 199.40 254.02 190.08 253.98 C 190.32 244.57 192.90 235.31 197.20 226.96 C 201.38 228.74 206.48 228.08 209.08 224.03 Z" />
<path fill="#03b3e4" opacity="1.00" d=" M 226.28 224.11 C 243.42 223.93 260.58 223.93 277.72 224.10 C 280.38 233.84 281.85 243.90 281.96 253.99 C 261.98 254.00 242.01 254.02 222.04 253.98 C 222.16 243.89 223.61 233.83 226.28 224.11 Z" />
<path fill="#03b3e4" opacity="1.00" d=" M 281.83 224.01 C 289.56 223.98 297.28 224.03 305.01 223.98 C 305.28 224.46 305.82 225.41 306.09 225.89 C 302.67 226.64 299.37 228.83 298.41 232.37 C 296.75 237.15 300.08 242.73 304.98 243.76 C 307.48 244.48 310.01 243.56 312.24 242.47 C 313.59 246.13 313.65 250.13 313.92 253.98 C 304.60 254.02 295.29 254.01 285.98 253.99 C 285.81 243.87 284.45 233.78 281.83 224.01 Z" />
<path fill="#03b3e4" opacity="1.00" d=" M 190.09 258.01 C 199.40 257.99 208.71 257.99 218.03 258.01 C 218.18 268.21 219.60 278.37 222.21 288.24 C 220.57 287.47 218.94 286.69 217.34 285.85 C 215.17 280.33 208.87 276.73 203.04 278.39 C 200.22 278.94 198.15 281.03 196.17 282.95 C 192.45 275.17 190.34 266.63 190.09 258.01 Z" />
<path fill="#03b3e4" opacity="1.00" d=" M 222.04 258.02 C 242.01 257.99 261.98 257.99 281.96 258.02 C 281.84 268.11 280.39 278.16 277.72 287.89 C 260.57 288.05 243.40 288.11 226.26 287.87 C 223.62 278.14 222.15 268.10 222.04 258.02 Z" />
<path fill="#03b3e4" opacity="1.00" d=" M 285.97 258.01 C 295.29 258.00 304.61 257.97 313.92 258.03 C 313.56 264.43 312.79 271.06 310.09 276.93 C 309.71 272.53 311.13 266.99 307.09 263.86 C 302.67 259.82 294.70 262.90 294.11 268.85 C 293.83 275.22 294.10 281.61 293.99 288.00 C 289.93 288.00 285.88 288.01 281.82 287.99 C 284.46 278.22 285.80 268.12 285.97 258.01 Z" />
<path fill="#03b3e4" opacity="1.00" d=" M 227.71 292.01 C 243.91 291.99 260.10 291.99 276.30 292.01 C 273.17 300.73 268.75 309.65 260.94 315.07 C 255.50 318.95 247.71 318.72 242.44 314.65 C 235.03 309.15 230.73 300.52 227.71 292.01 Z" />
<path fill="#03b3e4" opacity="1.00" d=" M 280.38 292.21 C 284.90 291.75 289.46 292.10 293.99 292.00 C 293.99 295.25 294.09 298.50 293.89 301.74 C 286.04 308.67 276.61 314.02 266.31 316.21 C 272.95 309.57 277.64 301.16 280.38 292.21 Z" />
<path fill="#03b3e4" opacity="1.00" d=" M 218.03 301.72 C 221.54 301.00 223.13 297.67 224.49 294.75 C 227.22 302.78 231.72 310.16 237.65 316.21 C 227.26 313.80 217.27 308.68 209.76 301.06 C 212.58 300.37 215.19 302.92 218.03 301.72 Z" />
</g>
<g id="#ffffffff">
<path fill="#ffffff" opacity="1.00" d=" M 184.72 212.63 C 186.66 208.67 192.01 206.61 195.88 209.09 C 198.49 210.32 199.28 213.18 200.47 215.55 C 202.09 216.18 204.26 216.07 205.26 217.76 C 206.88 219.88 205.56 223.26 203.00 223.85 C 201.03 224.42 199.42 222.97 197.83 222.11 C 194.11 224.45 189.50 224.41 185.92 221.80 C 183.80 223.09 181.22 224.91 178.72 223.38 C 175.26 221.82 175.21 216.34 178.60 214.68 C 180.47 213.33 183.68 215.27 184.72 212.63 Z" />
<path fill="#ffffff" opacity="1.00" d=" M 310.72 228.64 C 312.66 224.66 318.02 222.61 321.89 225.09 C 324.47 226.31 325.28 229.13 326.42 231.50 C 328.04 232.24 330.30 232.03 331.29 233.81 C 332.69 235.70 331.82 238.70 329.66 239.60 C 327.56 240.72 325.54 239.10 323.80 238.11 C 320.11 240.50 315.59 240.32 311.97 237.90 C 309.84 238.76 307.76 240.81 305.30 239.65 C 301.37 238.45 300.94 232.37 304.66 230.65 C 306.52 229.33 309.70 231.26 310.72 228.64 Z" />
<path fill="#ffffff" opacity="1.00" d=" M 300.34 266.39 C 302.77 265.14 306.01 267.16 305.94 269.89 C 306.08 284.26 305.95 298.64 306.00 313.02 C 305.65 315.79 309.02 316.82 309.52 319.37 C 311.53 324.32 307.23 330.23 301.94 329.98 C 296.69 330.15 292.50 324.29 294.47 319.38 C 294.96 316.84 298.33 315.81 298.00 313.05 C 298.01 299.01 297.99 284.98 298.00 270.95 C 297.85 269.14 298.57 267.14 300.34 266.39 M 300.00 286.00 C 299.99 296.05 300.00 306.11 300.01 316.16 C 296.85 317.74 294.65 321.82 296.90 325.04 C 298.96 328.89 305.01 328.90 307.09 325.05 C 309.35 321.84 307.15 317.74 303.99 316.16 C 304.01 306.10 304.00 296.05 303.99 286.00 C 302.66 286.00 301.33 286.00 300.00 286.00 Z" />
<path fill="#ffffff" opacity="1.00" d=" M 203.40 282.48 C 207.77 280.75 212.67 283.83 213.81 288.20 C 214.33 290.89 218.11 289.43 219.24 291.72 C 220.89 293.86 219.58 297.25 216.99 297.87 C 215.03 298.42 213.50 296.92 211.85 296.20 C 209.87 296.68 208.16 298.05 206.04 297.97 C 203.82 298.04 201.98 296.71 200.02 295.91 C 198.01 296.53 196.35 298.51 194.05 297.87 C 190.28 297.29 188.70 292.11 191.47 289.51 C 193.09 287.61 195.66 288.38 197.78 287.89 C 199.36 285.83 200.67 283.22 203.40 282.48 Z" />
</g>
<g id="#02cdbaff">
<path fill="#02cdba" opacity="1.00" d=" M 300.00 286.00 C 301.33 286.00 302.66 286.00 303.99 286.00 C 304.00 296.05 304.01 306.10 303.99 316.16 C 307.15 317.74 309.35 321.84 307.09 325.05 C 305.01 328.90 298.96 328.89 296.90 325.04 C 294.65 321.82 296.85 317.74 300.01 316.16 C 300.00 306.11 299.99 296.05 300.00 286.00 Z" />
</g>
<g id="#f1edfcff">
</g>
</svg>
